<svg width="7" height="12" viewBox="0 0 7 12" fill="black" xmlns="http://www.w3.org/2000/svg">
<path fill-rule="evenodd" clip-rule="evenodd" d="M0.292787 5.31134L4.88579 0.792288C4.97737 0.700338 5.08658 0.627164 5.20708 0.576996C5.32759 0.526828 5.45701 0.500663 5.58786 0.500012C5.71871 0.499362 5.84839 0.52424 5.9694 0.573207C6.09042 0.622175 6.20037 0.694261 6.29289 0.785296C6.38542 0.876331 6.45868 0.98451 6.50845 1.10358C6.55822 1.22265 6.58351 1.35024 6.58284 1.47898C6.58218 1.60772 6.55559 1.73506 6.5046 1.85362C6.45361 1.97219 6.37924 2.07964 6.28579 2.16975L2.38579 6.00696L6.28579 9.84417C6.46835 10.0275 6.57002 10.2742 6.5687 10.5309C6.56739 10.7875 6.46319 11.0332 6.27875 11.2147C6.09432 11.3962 5.84454 11.4987 5.58372 11.5C5.32289 11.5013 5.07208 11.4013 4.88579 11.2216L0.292787 6.70356C0.105316 6.51905 0 6.26884 0 6.00794C0 5.74705 0.105316 5.49683 0.292787 5.31232V5.31134Z" />
</svg>
