<svg width="7" height="12" viewBox="0 0 7 12" fill="black" xmlns="http://www.w3.org/2000/svg">
<path fill-rule="evenodd" clip-rule="evenodd" d="M6.2901 5.31134L1.6971 0.792288C1.60551 0.700338 1.49631 0.627164 1.3758 0.576996C1.2553 0.526828 1.12588 0.500663 0.995028 0.500012C0.86418 0.499362 0.734499 0.52424 0.613482 0.573207C0.492466 0.622175 0.382517 0.694261 0.289992 0.785296C0.197467 0.876331 0.124202 0.98451 0.0744333 1.10358C0.0246644 1.22265 -0.000619888 1.35024 4.1008e-05 1.47898C0.000701904 1.60772 0.0272956 1.73506 0.0782843 1.85362C0.129273 1.97219 0.203644 2.07964 0.297099 2.16975L4.1971 6.00696L0.297099 9.84417C0.114535 10.0275 0.0128655 10.2742 0.014183 10.5309C0.0155005 10.7875 0.119698 11.0332 0.304134 11.2147C0.488571 11.3962 0.738341 11.4987 0.99917 11.5C1.26 11.5013 1.51081 11.4013 1.6971 11.2216L6.2901 6.70356C6.47757 6.51905 6.58289 6.26884 6.58289 6.00794C6.58289 5.74705 6.47757 5.49683 6.2901 5.31232V5.31134Z" />
</svg>
